# xmcd
#
# Track frame offsets:
#	150
#	34511
#	61853
#	80136
#	109031
#	118794
#	144090
#
# Disc length: 2252 seconds
#
# Revision: 1
# Processed by: cddbd v1.5.1PL2 Copyright (c) Steve Scherf et al.
# Submitted via: EasyCDDAExtractor 9.0.0.1
#
DISCID=5408ca07
DTITLE=Dio - Birch Hill Nightclub Old Bridge 16-09-94 Disc 2
DYEAR=1994
DGENRE=Hard Rock
TTITLE0=Evilution
TTITLE1=Give Her The Gun
TTITLE2=Stand Up And Shout
TTITLE3=The Last In Line
TTITLE4=Encore Cheers
TTITLE5=Rainbow In The Dark
TTITLE6=We Rock
EXTD=
EXTT0=
EXTT1=
EXTT2=
EXTT3=
EXTT4=
EXTT5=
EXTT6=
PLAYORDER=
